<svg id="Layer_1" data-name="Layer 1" xmlns="http://www.w3.org/2000/svg" xmlns:xlink="http://www.w3.org/1999/xlink" viewBox="0 0 72.93 15.67"><defs><style>.cls-1,.cls-3{fill:none;}.cls-2{clip-path:url(#clip-path);}.cls-3{stroke:#827553;stroke-miterlimit:10;}.cls-4{fill:#2a4d59;}</style><clipPath id="clip-path"><rect class="cls-1" x="250.72" y="-61.2" width="308.1" height="43.38"/></clipPath></defs><title>checkin</title><g class="cls-2"><line class="cls-3" x1="-41.11" y1="45.2" x2="319.05" y2="-420.12"/><line class="cls-3" x1="-37.4" y1="48.45" x2="322.77" y2="-416.87"/><line class="cls-3" x1="-33.68" y1="51.7" x2="326.48" y2="-413.63"/><line class="cls-3" x1="-29.96" y1="54.94" x2="330.2" y2="-410.38"/><line class="cls-3" x1="-26.25" y1="58.19" x2="333.92" y2="-407.13"/><line class="cls-3" x1="-22.53" y1="61.44" x2="337.63" y2="-403.89"/><line class="cls-3" x1="-18.82" y1="64.68" x2="341.35" y2="-400.64"/><line class="cls-3" x1="-15.1" y1="67.93" x2="345.06" y2="-397.39"/><line class="cls-3" x1="-11.39" y1="71.18" x2="348.78" y2="-394.15"/><line class="cls-3" x1="-7.67" y1="74.42" x2="352.49" y2="-390.9"/><line class="cls-3" x1="-3.96" y1="77.67" x2="356.21" y2="-387.65"/><line class="cls-3" x1="-0.24" y1="80.92" x2="359.92" y2="-384.41"/><line class="cls-3" x1="3.48" y1="84.16" x2="363.64" y2="-381.16"/><line class="cls-3" x1="7.19" y1="87.41" x2="367.36" y2="-377.91"/><line class="cls-3" x1="10.91" y1="90.66" x2="371.07" y2="-374.67"/><line class="cls-3" x1="14.62" y1="93.9" x2="374.79" y2="-371.42"/><line class="cls-3" x1="18.34" y1="97.15" x2="378.5" y2="-368.17"/><line class="cls-3" x1="22.05" y1="100.4" x2="382.22" y2="-364.93"/><line class="cls-3" x1="25.77" y1="103.64" x2="385.93" y2="-361.68"/><line class="cls-3" x1="29.48" y1="106.89" x2="389.65" y2="-358.43"/><line class="cls-3" x1="33.2" y1="110.14" x2="393.36" y2="-355.19"/><line class="cls-3" x1="36.91" y1="113.38" x2="397.08" y2="-351.94"/><line class="cls-3" x1="40.63" y1="116.63" x2="400.8" y2="-348.69"/><line class="cls-3" x1="44.35" y1="119.88" x2="404.51" y2="-345.45"/><line class="cls-3" x1="48.06" y1="123.12" x2="408.23" y2="-342.2"/><line class="cls-3" x1="51.78" y1="126.37" x2="411.94" y2="-338.95"/><line class="cls-3" x1="55.49" y1="129.62" x2="415.66" y2="-335.7"/><line class="cls-3" x1="59.21" y1="132.86" x2="419.37" y2="-332.46"/><line class="cls-3" x1="62.92" y1="136.11" x2="423.09" y2="-329.21"/><line class="cls-3" x1="66.64" y1="139.36" x2="426.8" y2="-325.96"/><line class="cls-3" x1="70.35" y1="142.6" x2="430.52" y2="-322.72"/></g><path class="cls-4" d="M8.84,12.67a5,5,0,0,1-1.43,1.68,3.54,3.54,0,0,1-2.08.58,6.88,6.88,0,0,1-2-.26,4.42,4.42,0,0,1-1.54-.8,3.71,3.71,0,0,1-1-1.32,4.31,4.31,0,0,1-.36-1.82A4,4,0,0,1,1.83,7.62a4.51,4.51,0,0,1,1.46-.81,5.69,5.69,0,0,1,1.76-.27A5.19,5.19,0,0,1,7,6.86a4.1,4.1,0,0,1,1.35.82,1.46,1.46,0,0,1,.35.48,1,1,0,0,1,.11.46,1.12,1.12,0,0,1-.28.78,1,1,0,0,1-.79.32.91.91,0,0,1-.59-.19,1.07,1.07,0,0,1-.35-.61,3,3,0,0,0-.29-.77,1.48,1.48,0,0,0-.38-.46,1.49,1.49,0,0,0-.48-.22,2.74,2.74,0,0,0-.59-.06,1.45,1.45,0,0,0-.79.22,2.23,2.23,0,0,0-.65.65,3.29,3.29,0,0,0-.44,1A5.47,5.47,0,0,0,3,10.73a4.22,4.22,0,0,0,.62,2.42,2.15,2.15,0,0,0,1.92.91A2.55,2.55,0,0,0,7,13.61a5.35,5.35,0,0,0,1.37-1.52Z"/><path class="cls-4" d="M18.86,13.56l1.09.91v.25H15.29v-.25l1.09-.91V8.87a1.24,1.24,0,0,0-.32-.94,1.17,1.17,0,0,0-.84-.29,1.74,1.74,0,0,0-.84.24,5.92,5.92,0,0,0-.83.54,7.11,7.11,0,0,0-.89.77v4.37l1.08.91v.25H9.09v-.25l1.08-.91V3.16L9.09,2.25V2l3.57-.73v7a9.34,9.34,0,0,1,1.12-.87,7.81,7.81,0,0,1,1.12-.6,3.08,3.08,0,0,1,1.24-.27,2.92,2.92,0,0,1,2,.62,2.43,2.43,0,0,1,.69,1.9Z"/><path class="cls-4" d="M29,12.32a4.59,4.59,0,0,1-1.6,2,4.61,4.61,0,0,1-2.56.64,5.15,5.15,0,0,1-1.8-.29,4,4,0,0,1-1.41-.84,3.83,3.83,0,0,1-.94-1.32,4.44,4.44,0,0,1-.34-1.75A4,4,0,0,1,20.66,9a4.14,4.14,0,0,1,.95-1.33A4.31,4.31,0,0,1,23,6.84a4.79,4.79,0,0,1,1.7-.3,4.14,4.14,0,0,1,3.06,1.07,4,4,0,0,1,1.07,2.91v.27h-6A6.35,6.35,0,0,0,23,11.92,3.73,3.73,0,0,0,23.35,13a2.07,2.07,0,0,0,.72.78,2,2,0,0,0,1.12.3A3,3,0,0,0,27,13.48a5.13,5.13,0,0,0,1.37-1.62ZM24.71,7.41a1.47,1.47,0,0,0-.78.21,1.93,1.93,0,0,0-.57.57A3,3,0,0,0,23,9a3.6,3.6,0,0,0-.14.92h3.68V9.76a3.9,3.9,0,0,0-.1-.81,2.45,2.45,0,0,0-.32-.76,2,2,0,0,0-.57-.56A1.51,1.51,0,0,0,24.71,7.41Z"/><path class="cls-4" d="M38.05,12.67a4.9,4.9,0,0,1-1.43,1.68,3.49,3.49,0,0,1-2.07.58,6.9,6.9,0,0,1-2-.26,4.37,4.37,0,0,1-1.53-.8,3.73,3.73,0,0,1-1-1.32,4.32,4.32,0,0,1-.35-1.82A4,4,0,0,1,31,7.62a4.61,4.61,0,0,1,1.46-.81,5.73,5.73,0,0,1,1.76-.27,5.15,5.15,0,0,1,1.94.32,3.9,3.9,0,0,1,1.35.82,1.51,1.51,0,0,1,.36.48,1.06,1.06,0,0,1,.1.46,1.12,1.12,0,0,1-.28.78,1,1,0,0,1-.78.32.92.92,0,0,1-.6-.19A1.06,1.06,0,0,1,36,8.92a3.43,3.43,0,0,0-.3-.77,1.48,1.48,0,0,0-.38-.46,1.32,1.32,0,0,0-.48-.22,2.68,2.68,0,0,0-.59-.06,1.47,1.47,0,0,0-.79.22,2.23,2.23,0,0,0-.65.65,3.29,3.29,0,0,0-.44,1,5.47,5.47,0,0,0-.16,1.41,4.3,4.3,0,0,0,.62,2.42,2.16,2.16,0,0,0,1.92.91,2.55,2.55,0,0,0,1.44-.45,5.21,5.21,0,0,0,1.37-1.52Z"/><path class="cls-4" d="M43.17,9.33,44,9l3.36,6.47-2.06-.76-1.19-1.16-1.85-3.41-.38.32v3.09l1.09.91v.25H38.28v-.25l1.09-.91V3.16l-1.09-.91V2l3.57-.73v8l1.82-1.57L43.08,7V6.75h3.26V7l-1.52.89Z"/><path class="cls-4" d="M55.9,13.56l1.09.91v.25H52.33v-.25l1.08-.91V8.26l-1.08-.9V7.11l3.57-.73ZM53.18,3.44a1.36,1.36,0,0,1,.43-1,1.42,1.42,0,0,1,2,0,1.36,1.36,0,0,1,.43,1,1.35,1.35,0,0,1-.43,1,1.42,1.42,0,0,1-2,0A1.35,1.35,0,0,1,53.18,3.44Z"/><path class="cls-4" d="M67.21,13.56l1.08.91v.25H63.63v-.25l1.09-.91V9a1.89,1.89,0,0,0-.21-1,.93.93,0,0,0-.8-.3,1.77,1.77,0,0,0-.84.24,6.79,6.79,0,0,0-.85.54,10.69,10.69,0,0,0-.93.78v4.36l1.09.91v.25H57.52v-.25l1.08-.91V8.26l-1.08-.9V7.11l3.57-.73v1.9a13,13,0,0,1,1.16-.87,8.67,8.67,0,0,1,1.14-.6,3.08,3.08,0,0,1,1.24-.27,2.71,2.71,0,0,1,2,.59,2.68,2.68,0,0,1,.59,1.93Z"/><path class="cls-4" d="M69.11,13.53a1.25,1.25,0,0,1,.12-.54,1.45,1.45,0,0,1,.3-.47A1.43,1.43,0,0,1,70,12.2a1.45,1.45,0,0,1,.54-.11,1.42,1.42,0,0,1,.55.11,1.81,1.81,0,0,1,.46.32,1.51,1.51,0,0,1,.32.47,1.27,1.27,0,0,1,0,1.08,1.42,1.42,0,0,1-.32.45,2,2,0,0,1-.46.3,1.26,1.26,0,0,1-.55.11,1.38,1.38,0,0,1-1-.41A1.35,1.35,0,0,1,69.11,13.53Z"/></svg>