<svg id="Layer_1" data-name="Layer 1" xmlns="http://www.w3.org/2000/svg" viewBox="0 0 325 81"><defs><style>.cls-1{fill:#2A4D59;}</style></defs><title>iFeel_Branding</title><path class="cls-1" d="M8.1,12.49,2.5,6.06V5H30.55a36.26,36.26,0,0,1,8.2.87,19.11,19.11,0,0,1,6.46,2.72,12.93,12.93,0,0,1,4.23,4.69A14.19,14.19,0,0,1,51,20.05a14.88,14.88,0,0,1-1.2,6.2,13.6,13.6,0,0,1-3.33,4.54,16.89,16.89,0,0,1-4.91,3,26.21,26.21,0,0,1-6,1.59l5.51.75L54.51,62.33l-9.83-3.25-8.39-7.49L25.78,35.78H20.72l-1.06,1.06V51.59L25.26,58v1.06H2.5V58l5.6-6.43ZM19.66,30.64l1.06,1.06h8.09a11.42,11.42,0,0,0,4-.72,9.16,9.16,0,0,0,3.36-2.16,10.6,10.6,0,0,0,2.31-3.55,12.66,12.66,0,0,0,.87-4.84,12.62,12.62,0,0,0-.87-4.84A10.75,10.75,0,0,0,36.21,12a9.78,9.78,0,0,0-3.36-2.19,11,11,0,0,0-4-.75H20.72l-1.06,1.05Z"/><path class="cls-1" d="M91,48.87a19.51,19.51,0,0,1-6.8,8.39Q80.06,60,73.33,60a22.55,22.55,0,0,1-7.64-1.25,17.78,17.78,0,0,1-6-3.56,16.16,16.16,0,0,1-4-5.63,18.48,18.48,0,0,1-1.44-7.41,17.21,17.21,0,0,1,1.51-7.3,17.77,17.77,0,0,1,4-5.64,18.12,18.12,0,0,1,5.94-3.63A20.48,20.48,0,0,1,73,24.29q8.48,0,13,4.57t4.53,12.37v1.13H65.09a24.31,24.31,0,0,0,.49,4.81,15.58,15.58,0,0,0,1.63,4.5A9.29,9.29,0,0,0,70.27,55a8.41,8.41,0,0,0,4.79,1.29,12.64,12.64,0,0,0,7.71-2.5A20.79,20.79,0,0,0,88.6,46.9ZM73,28a6.06,6.06,0,0,0-3.32.91,7.87,7.87,0,0,0-2.42,2.42,12.34,12.34,0,0,0-1.51,3.44,16.31,16.31,0,0,0-.6,3.9H80.81V38a15.44,15.44,0,0,0-.41-3.44A10,10,0,0,0,79,31.32a8,8,0,0,0-2.41-2.38A6.55,6.55,0,0,0,73,28Z"/><path class="cls-1" d="M112.1,24.21a33.84,33.84,0,0,1,4.65.34,16.89,16.89,0,0,1,4.57,1.33l9.75-3.48,1.44,1.43-5.59,6.88a10.12,10.12,0,0,1,1.06,2.5,13.69,13.69,0,0,1,.3,3.18,10.13,10.13,0,0,1-1.44,5.48,11.77,11.77,0,0,1-3.78,3.78,17.7,17.7,0,0,1-5.21,2.2,23.63,23.63,0,0,1-5.75.71h-.3a6.76,6.76,0,0,0-3,.8,26.67,26.67,0,0,0-3,1.77c-1.11.76-2.21,1.59-3.32,2.5a2.82,2.82,0,0,0,1.43.76,19.6,19.6,0,0,0,2.69.6,39.71,39.71,0,0,0,4.72.46q4.77.22,8.77.75A25,25,0,0,1,126.92,58a10.94,10.94,0,0,1,4.49,3.52A9.66,9.66,0,0,1,133,67.4a9.27,9.27,0,0,1-2.15,6.27,15.85,15.85,0,0,1-5.3,4,25.76,25.76,0,0,1-6.72,2.07,38.7,38.7,0,0,1-6.47.61,40.44,40.44,0,0,1-8.31-.79,20.72,20.72,0,0,1-6.5-2.46,12.48,12.48,0,0,1-4.23-4.16A11.16,11.16,0,0,1,91.85,67a9.17,9.17,0,0,1,1.32-5,11.14,11.14,0,0,1,3.66-3.52A7.75,7.75,0,0,1,95.32,57a12.22,12.22,0,0,1-1.17-1.82,10.18,10.18,0,0,1-.76-1.85,6,6,0,0,1-.26-1.59L103,46.6a15.68,15.68,0,0,1-2.31-1.44A11.72,11.72,0,0,1,98.38,43,12,12,0,0,1,96.68,40,9.57,9.57,0,0,1,96,36.39a10.17,10.17,0,0,1,1.44-5.49,11.77,11.77,0,0,1,3.78-3.78,18,18,0,0,1,5.18-2.19A23,23,0,0,1,112.1,24.21Zm-.76,39.55a33.06,33.06,0,0,1-5.13-.75,18.32,18.32,0,0,1-3.86-1.36,6.38,6.38,0,0,0-1.66,2.5,8.27,8.27,0,0,0-.53,2.87,8.6,8.6,0,0,0,1.06,4.35,9.53,9.53,0,0,0,2.83,3.1,12.5,12.5,0,0,0,4.12,1.85,20.06,20.06,0,0,0,5,.61q6.34,0,9.41-2.31a6.8,6.8,0,0,0,3.06-5.56,3.23,3.23,0,0,0-.87-2.34,6.23,6.23,0,0,0-2.6-1.48,22.64,22.64,0,0,0-4.43-.87Q115,64.07,111.34,63.76Zm.76-18.6a5.74,5.74,0,0,0,5-2.46,10.65,10.65,0,0,0,1.74-6.31,10.51,10.51,0,0,0-1.74-6.28,5.78,5.78,0,0,0-5-2.42,5.71,5.71,0,0,0-4.91,2.42,10.51,10.51,0,0,0-1.74,6.28,10.65,10.65,0,0,0,1.74,6.31A5.67,5.67,0,0,0,112.1,45.16Z"/><path class="cls-1" d="M138.18,31.62l-4.61-3.85V26.71l15.19-3.1v26a7.87,7.87,0,0,0,.91,4.39c.6.86,1.73,1.28,3.4,1.28a7.47,7.47,0,0,0,3.51-1,28.26,28.26,0,0,0,3.67-2.3,38.65,38.65,0,0,0,3.93-3.33v-17l-4.61-3.85V26.71l15.19-3.1V54.16L179.37,58v1.06H164.18V52.57a39.82,39.82,0,0,1-4.91,3.71,31.18,31.18,0,0,1-4.84,2.57A13.31,13.31,0,0,1,149.14,60q-6,0-8.47-2.54c-1.66-1.69-2.49-4.42-2.49-8.21Z"/><path class="cls-1" d="M197.14,54.16l4.6,3.86v1.06h-19.8V58l4.61-3.86V9.92l-4.61-3.86V5l15.2-3.1Z"/><path class="cls-1" d="M235.91,55.14l4.23,3.18v.76H225.33V55.14c-.86.86-1.67,1.61-2.42,2.24a10.12,10.12,0,0,1-2.46,1.51,12.64,12.64,0,0,1-2.94.83,24.31,24.31,0,0,1-3.9.27,12.76,12.76,0,0,1-3.74-.54,9.87,9.87,0,0,1-3.18-1.58,7.64,7.64,0,0,1-2.22-2.73,8.63,8.63,0,0,1-.84-3.93q0-5.07,5.26-8.32t16.44-4.54V35.63a10.79,10.79,0,0,0-1.25-5.52Q222.83,28,219.43,28a5.75,5.75,0,0,0-4.12,1.48,11.07,11.07,0,0,0-2.53,5.18A3.66,3.66,0,0,1,211.34,37a4,4,0,0,1-2.34.71,4.73,4.73,0,0,1-2.91-1,3.44,3.44,0,0,1-1.32-2.95,5.49,5.49,0,0,1,.26-1.59,6,6,0,0,1,.95-1.74,13.25,13.25,0,0,1,6-4.69,20.36,20.36,0,0,1,7.44-1.43q7.78,0,12.13,3.1c2.9,2.06,4.35,5.65,4.35,10.74ZM225.33,41.83a26.63,26.63,0,0,0-5.71,1.33,12.68,12.68,0,0,0-3.7,2,6.42,6.42,0,0,0-2,2.65,8.39,8.39,0,0,0-.57,3.06,6.93,6.93,0,0,0,1,3.78c.68,1.06,2,1.59,3.82,1.59a5.82,5.82,0,0,0,5.26-3.14,15.55,15.55,0,0,0,1.85-8Z"/><path class="cls-1" d="M255.56,49.24a9.72,9.72,0,0,0,1.14,5.11c.75,1.24,2.14,1.85,4.15,1.85A5.14,5.14,0,0,0,264.33,55a19,19,0,0,0,3.17-3.9l1.59,1.14c-.7,1.26-1.4,2.38-2.08,3.36a11.09,11.09,0,0,1-2.3,2.46,9.28,9.28,0,0,1-2.91,1.47,13.49,13.49,0,0,1-3.9.5,16.26,16.26,0,0,1-5.85-1A10.62,10.62,0,0,1,248,56.39a10.25,10.25,0,0,1-2.3-4.08,18.13,18.13,0,0,1-.72-5.26V30l-1.06-1.06h-4.61V27.31A15.46,15.46,0,0,0,245.93,24a26.42,26.42,0,0,0,4.41-5,30.33,30.33,0,0,0,3.26-6.43h2V24.14l1.06,1.06h7v3.7h-7L255.56,30Z"/><path class="cls-1" d="M306.05,48.87a19.51,19.51,0,0,1-6.8,8.39Q295.1,60,288.37,60a22.55,22.55,0,0,1-7.64-1.25,17.78,17.78,0,0,1-6-3.56,16.16,16.16,0,0,1-4-5.63,18.48,18.48,0,0,1-1.44-7.41,17.21,17.21,0,0,1,1.51-7.3,17.77,17.77,0,0,1,4-5.64,18.12,18.12,0,0,1,5.94-3.63,20.48,20.48,0,0,1,7.25-1.28q8.47,0,13,4.57t4.53,12.37v1.13H280.13a24.31,24.31,0,0,0,.49,4.81,15.87,15.87,0,0,0,1.62,4.5A9.47,9.47,0,0,0,285.3,55a8.47,8.47,0,0,0,4.8,1.29,12.64,12.64,0,0,0,7.71-2.5,20.79,20.79,0,0,0,5.83-6.88ZM288.06,28a6,6,0,0,0-3.32.91,7.87,7.87,0,0,0-2.42,2.42,12.34,12.34,0,0,0-1.51,3.44,16.85,16.85,0,0,0-.61,3.9h15.65V38a14.9,14.9,0,0,0-.42-3.44,9.75,9.75,0,0,0-1.36-3.22,8,8,0,0,0-2.42-2.38A6.51,6.51,0,0,0,288.06,28Z"/><path class="cls-1" d="M309.91,54a5.57,5.57,0,0,1,.49-2.31,7.37,7.37,0,0,1,1.28-2,5.68,5.68,0,0,1,6.51-1.37,6.74,6.74,0,0,1,2,1.37,6.58,6.58,0,0,1,1.36,2,5.69,5.69,0,0,1,0,4.62,5.71,5.71,0,0,1-1.36,1.89,7.53,7.53,0,0,1-2,1.28,5.58,5.58,0,0,1-2.31.5,6.06,6.06,0,0,1-6-6Z"/></svg>