<?xml version="1.0" encoding="utf-8"?>
<!-- Generator: Adobe Illustrator 23.0.3, SVG Export Plug-In . SVG Version: 6.00 Build 0)  -->
<svg version="1.1" id="Layer_1" xmlns="http://www.w3.org/2000/svg" xmlns:xlink="http://www.w3.org/1999/xlink" x="0px" y="0px"
	 viewBox="0 0 64 64.2" style="enable-background:new 0 0 64 64.2;" xml:space="preserve">
<style type="text/css">
	.st0{fill:#1A1E33;}
	.st1{fill:#ECAEA3;}
	.st2{fill:#8FC6BB;}
	.st3{fill:#E4E4E4;}
	.st4{fill:#F4D28E;}
	.st5{fill:#D3524E;}
	.st6{fill:#2A4D59;}
	.st7{fill:#BB8253;}
	.st8{fill:#FFFFFF;}
	.st9{fill:#1F383F;}
	.st10{opacity:0.2;fill:#FFFFFF;}
	.st11{opacity:0.2;}
	.st12{fill:#FFFFFF;stroke:#898989;stroke-miterlimit:10;}
	.st13{fill:none;stroke:#898989;stroke-linecap:round;stroke-linejoin:round;stroke-miterlimit:10;}
	.st14{opacity:0.53;fill:none;stroke:#2A4D59;stroke-width:0.25;stroke-miterlimit:10;}
	.st15{opacity:0.1;fill:#FFFFFF;}
	.st16{fill:none;stroke:#2A4D59;stroke-width:0.25;stroke-miterlimit:10;}
	.st17{fill:none;stroke:#2A4D59;stroke-linecap:round;stroke-linejoin:round;stroke-miterlimit:10;}
	.st18{fill:#A9D3CB;}
</style>
<g>
	<path class="st6" d="M32,0.2c-17.6,0-32,14.4-32,32c0,17.6,14.4,32,32,32s32-14.4,32-32C64,14.5,49.6,0.2,32,0.2z M32,62.5
		c-16.8,0-30.4-13.6-30.4-30.4S15.2,1.8,32,1.8s30.4,13.6,30.4,30.4S48.8,62.5,32,62.5z"/>
	<path class="st6" d="M11.9,32.4c0.3,0,0.7-0.1,1-0.3c0.3-0.1,0.6-0.3,0.8-0.5c0.2-0.2,0.4-0.5,0.5-0.7c0.1-0.3,0.2-0.6,0.2-1
		c0-0.4-0.1-0.8-0.2-1.1c-0.2-0.3-0.4-0.6-0.7-0.8s-0.6-0.3-1-0.4c-0.4-0.1-0.8-0.1-1.3-0.1H6.6v0.2l0.9,1V35l-0.9,1v0.2h3.7V36
		l-0.9-1v-2.4l0.2-0.2h0.8l1.7,2.6l1.4,1.2l1.6,0.5l-2.2-4.2L11.9,32.4z M10.8,31.8H9.5l-0.2-0.2v-3.3l0.2-0.2h1.3
		c0.2,0,0.4,0,0.7,0.1c0.2,0.1,0.4,0.2,0.5,0.4c0.2,0.2,0.3,0.3,0.4,0.6c0.1,0.2,0.1,0.5,0.1,0.8c0,0.3,0,0.6-0.1,0.8
		c-0.1,0.2-0.2,0.4-0.4,0.6c-0.2,0.2-0.3,0.3-0.5,0.3C11.3,31.7,11.1,31.8,10.8,31.8z"/>
	<path class="st6" d="M19.6,35.4c-0.4,0.3-0.8,0.4-1.3,0.4c-0.3,0-0.6-0.1-0.8-0.2c-0.2-0.1-0.4-0.3-0.5-0.5
		c-0.1-0.2-0.2-0.5-0.3-0.7c-0.1-0.3-0.1-0.5-0.1-0.8h4.1v-0.2c0-0.8-0.2-1.5-0.7-2c-0.5-0.5-1.2-0.7-2.1-0.7
		c-0.4,0-0.8,0.1-1.2,0.2c-0.4,0.1-0.7,0.3-1,0.6c-0.3,0.3-0.5,0.6-0.7,0.9C15.1,32.6,15,33,15,33.5c0,0.4,0.1,0.8,0.2,1.2
		c0.2,0.4,0.4,0.7,0.6,0.9c0.3,0.2,0.6,0.4,1,0.6c0.4,0.1,0.8,0.2,1.2,0.2c0.7,0,1.3-0.1,1.8-0.4c0.5-0.3,0.8-0.7,1.1-1.4l-0.4-0.3
		C20.3,34.7,20,35.1,19.6,35.4z M16.8,32.3c0.1-0.2,0.1-0.4,0.2-0.6c0.1-0.2,0.2-0.3,0.4-0.4c0.2-0.1,0.3-0.1,0.5-0.1
		c0.2,0,0.4,0.1,0.6,0.2c0.2,0.1,0.3,0.2,0.4,0.4c0.1,0.2,0.2,0.3,0.2,0.5c0,0.2,0.1,0.4,0.1,0.6v0.1h-2.5
		C16.8,32.7,16.8,32.5,16.8,32.3z"/>
	<path class="st6" d="M26.8,36c-0.3-0.1-0.7-0.2-1.1-0.3s-0.9-0.1-1.4-0.1c-0.3,0-0.6,0-0.8-0.1c-0.2,0-0.3-0.1-0.4-0.1
		c-0.1,0-0.2-0.1-0.2-0.1c0.2-0.1,0.4-0.3,0.5-0.4c0.2-0.1,0.3-0.2,0.5-0.3c0.2-0.1,0.3-0.1,0.5-0.1h0c0.3,0,0.6,0,0.9-0.1
		c0.3-0.1,0.6-0.2,0.8-0.4c0.3-0.2,0.5-0.4,0.6-0.6c0.2-0.2,0.2-0.5,0.2-0.9c0-0.2,0-0.4,0-0.5c0-0.1-0.1-0.3-0.2-0.4l0.9-1.1
		l-0.2-0.2l-1.6,0.6c-0.2-0.1-0.5-0.2-0.7-0.2c-0.3,0-0.5-0.1-0.8-0.1c-0.3,0-0.6,0-0.9,0.1c-0.3,0.1-0.6,0.2-0.8,0.4
		c-0.3,0.2-0.5,0.4-0.6,0.6c-0.2,0.2-0.2,0.5-0.2,0.9c0,0.2,0,0.4,0.1,0.6c0.1,0.2,0.2,0.3,0.3,0.5c0.1,0.1,0.2,0.3,0.4,0.4
		c0.1,0.1,0.3,0.2,0.4,0.2L21.3,35c0,0.1,0,0.2,0,0.3c0,0.1,0.1,0.2,0.1,0.3c0.1,0.1,0.1,0.2,0.2,0.3c0.1,0.1,0.2,0.2,0.2,0.2
		c-0.3,0.2-0.5,0.3-0.6,0.6c-0.1,0.2-0.2,0.5-0.2,0.8c0,0.4,0.1,0.7,0.2,1c0.2,0.3,0.4,0.5,0.7,0.7c0.3,0.2,0.6,0.3,1.1,0.4
		c0.4,0.1,0.9,0.1,1.3,0.1c0.3,0,0.7,0,1-0.1c0.4-0.1,0.8-0.2,1.1-0.3c0.3-0.2,0.6-0.4,0.9-0.6c0.2-0.3,0.3-0.6,0.3-1
		c0-0.4-0.1-0.7-0.3-1C27.3,36.4,27.1,36.2,26.8,36z M23.6,31.5c0.2-0.3,0.5-0.4,0.8-0.4c0.4,0,0.6,0.1,0.8,0.4
		c0.2,0.3,0.3,0.6,0.3,1c0,0.4-0.1,0.8-0.3,1C25,33.8,24.7,34,24.4,34c-0.3,0-0.6-0.1-0.8-0.4c-0.2-0.3-0.3-0.6-0.3-1
		C23.3,32.1,23.4,31.8,23.6,31.5z M26.1,38.7c-0.3,0.2-0.8,0.4-1.5,0.4c-0.3,0-0.6,0-0.8-0.1c-0.3-0.1-0.5-0.2-0.7-0.3
		c-0.2-0.1-0.3-0.3-0.5-0.5c-0.1-0.2-0.2-0.4-0.2-0.7c0-0.2,0-0.3,0.1-0.5c0.1-0.2,0.1-0.3,0.3-0.4c0.2,0.1,0.4,0.2,0.6,0.2
		c0.2,0.1,0.5,0.1,0.8,0.1c0.4,0,0.7,0.1,1,0.1c0.3,0,0.5,0.1,0.7,0.1c0.2,0.1,0.3,0.1,0.4,0.2c0.1,0.1,0.1,0.2,0.1,0.4
		C26.6,38.2,26.4,38.5,26.1,38.7z"/>
	<path class="st6" d="M34.5,30.5L32.1,31v0.2l0.7,0.6v2.8c-0.2,0.2-0.4,0.4-0.6,0.5c-0.2,0.1-0.4,0.3-0.6,0.4
		c-0.2,0.1-0.4,0.2-0.6,0.2c-0.3,0-0.5-0.1-0.6-0.2c-0.1-0.1-0.1-0.4-0.1-0.7v-4.2L27.8,31v0.2l0.7,0.6v2.9c0,0.6,0.1,1.1,0.4,1.3
		c0.3,0.3,0.7,0.4,1.4,0.4c0.3,0,0.6-0.1,0.9-0.2c0.3-0.1,0.5-0.3,0.8-0.4c0.3-0.2,0.5-0.4,0.8-0.6v1.1h2.5V36l-0.7-0.6V30.5z"/>
	<polygon class="st6" points="38.2,26.9 35.7,27.4 35.7,27.6 36.4,28.2 36.4,35.4 35.7,36 35.7,36.2 38.9,36.2 38.9,36 38.2,35.4 	
		"/>
	<path class="st6" d="M44.5,32.8c0-0.8-0.2-1.4-0.7-1.7c-0.5-0.3-1.1-0.5-2-0.5c-0.4,0-0.8,0.1-1.2,0.2c-0.4,0.2-0.7,0.4-1,0.8
		c-0.1,0.1-0.1,0.2-0.2,0.3c0,0.1,0,0.2,0,0.3c0,0.2,0.1,0.4,0.2,0.5s0.3,0.2,0.5,0.2c0.1,0,0.3,0,0.4-0.1c0.1-0.1,0.2-0.2,0.2-0.4
		c0.1-0.4,0.2-0.7,0.4-0.8c0.2-0.2,0.4-0.2,0.7-0.2c0.4,0,0.6,0.1,0.8,0.3c0.1,0.2,0.2,0.5,0.2,0.9v0.4c-1.2,0.1-2.1,0.4-2.7,0.7
		c-0.6,0.4-0.9,0.8-0.9,1.4c0,0.2,0,0.5,0.1,0.6c0.1,0.2,0.2,0.3,0.4,0.4c0.2,0.1,0.3,0.2,0.5,0.3c0.2,0.1,0.4,0.1,0.6,0.1
		c0.2,0,0.5,0,0.6,0c0.2,0,0.3-0.1,0.5-0.1c0.1-0.1,0.3-0.1,0.4-0.2c0.1-0.1,0.3-0.2,0.4-0.4v0.6h2.4v-0.1l-0.7-0.5V32.8z M42.7,34
		c0,0.5-0.1,1-0.3,1.3c-0.2,0.3-0.5,0.5-0.9,0.5c-0.3,0-0.5-0.1-0.6-0.3c-0.1-0.2-0.2-0.4-0.2-0.6c0-0.2,0-0.3,0.1-0.5
		c0.1-0.2,0.2-0.3,0.3-0.4c0.2-0.1,0.4-0.2,0.6-0.3c0.2-0.1,0.6-0.2,0.9-0.2V34z"/>
	<path class="st6" d="M49.1,35.5c-0.2,0.1-0.3,0.2-0.6,0.2c-0.3,0-0.6-0.1-0.7-0.3s-0.2-0.5-0.2-0.8v-3.1l0.2-0.2H49v-0.6h-1.1
		l-0.2-0.2v-1.9h-0.3c-0.1,0.4-0.3,0.7-0.5,1c-0.2,0.3-0.4,0.5-0.7,0.8S45.4,31,45,31.1v0.3h0.7l0.2,0.2v2.8c0,0.3,0,0.6,0.1,0.9
		c0.1,0.3,0.2,0.5,0.4,0.7c0.2,0.2,0.4,0.3,0.7,0.4c0.3,0.1,0.6,0.2,1,0.2c0.2,0,0.5,0,0.6-0.1c0.2-0.1,0.3-0.1,0.5-0.2
		c0.1-0.1,0.3-0.2,0.4-0.4c0.1-0.2,0.2-0.3,0.3-0.5l-0.3-0.2C49.4,35.2,49.2,35.4,49.1,35.5z"/>
	<path class="st6" d="M54.5,35.4c-0.4,0.3-0.8,0.4-1.3,0.4c-0.3,0-0.6-0.1-0.8-0.2c-0.2-0.1-0.4-0.3-0.5-0.5
		c-0.1-0.2-0.2-0.5-0.3-0.7c-0.1-0.3-0.1-0.5-0.1-0.8h4.1v-0.2c0-0.8-0.2-1.5-0.7-2c-0.5-0.5-1.2-0.7-2.1-0.7
		c-0.4,0-0.8,0.1-1.2,0.2c-0.4,0.1-0.7,0.3-1,0.6c-0.3,0.3-0.5,0.6-0.7,0.9c-0.2,0.4-0.2,0.8-0.2,1.2c0,0.4,0.1,0.8,0.2,1.2
		c0.2,0.4,0.4,0.7,0.6,0.9c0.3,0.2,0.6,0.4,1,0.6c0.4,0.1,0.8,0.2,1.2,0.2c0.7,0,1.3-0.1,1.8-0.4c0.5-0.3,0.8-0.7,1.1-1.4l-0.4-0.3
		C55.2,34.7,54.9,35.1,54.5,35.4z M51.8,32.3c0.1-0.2,0.1-0.4,0.2-0.6c0.1-0.2,0.2-0.3,0.4-0.4c0.2-0.1,0.3-0.1,0.5-0.1
		c0.2,0,0.4,0.1,0.6,0.2c0.2,0.1,0.3,0.2,0.4,0.4c0.1,0.2,0.2,0.3,0.2,0.5c0,0.2,0.1,0.4,0.1,0.6v0.1h-2.5
		C51.7,32.7,51.7,32.5,51.8,32.3z"/>
	<path class="st6" d="M58.4,35c-0.1-0.1-0.1-0.2-0.2-0.3c-0.1-0.1-0.2-0.2-0.3-0.2c-0.1-0.1-0.2-0.1-0.4-0.1c-0.1,0-0.3,0-0.4,0.1
		c-0.1,0.1-0.2,0.1-0.3,0.2c-0.1,0.1-0.2,0.2-0.2,0.3c-0.1,0.1-0.1,0.2-0.1,0.4c0,0.3,0.1,0.5,0.3,0.7c0.2,0.2,0.4,0.3,0.7,0.3
		c0.1,0,0.3,0,0.4-0.1c0.1-0.1,0.2-0.1,0.3-0.2c0.1-0.1,0.2-0.2,0.2-0.3c0.1-0.1,0.1-0.2,0.1-0.4C58.4,35.3,58.4,35.1,58.4,35z"/>
</g>
</svg>
