<svg id="Layer_1" data-name="Layer 1" xmlns="http://www.w3.org/2000/svg" viewBox="0 0 64 64"><defs><style>.cls-1{fill:#192530;}</style></defs><title>secondaryLogo</title><path class="cls-1" d="M32,0A32,32,0,1,0,64,32,32,32,0,0,0,32,0Zm0,62A30,30,0,1,1,62,32,30,30,0,0,1,32,62Zm4.7-28.93a16.67,16.67,0,0,0,3.94-1,11.08,11.08,0,0,0,3.24-2,8.87,8.87,0,0,0,2.2-3,9.82,9.82,0,0,0,.8-4.09,9.45,9.45,0,0,0-1-4.47,8.73,8.73,0,0,0-2.79-3.1,12.61,12.61,0,0,0-4.27-1.79A23.52,23.52,0,0,0,33.4,13H14.89v.7l3.69,4.24V43.76L14.89,48v.7h15V48l-3.69-4.24V34l.7-.7h3.34L37.2,43.76l5.54,4.94,6.48,2.15L40.34,33.57Zm-4.44-2.45H26.92l-.7-.69V16.4l.7-.7h5.34a7.11,7.11,0,0,1,2.67.5,6.54,6.54,0,0,1,2.22,1.44A7.17,7.17,0,0,1,38.67,20a8.42,8.42,0,0,1,.57,3.2,8.4,8.4,0,0,1-.57,3.19,7.17,7.17,0,0,1-1.52,2.35,6.34,6.34,0,0,1-2.22,1.42A7.51,7.51,0,0,1,32.26,30.62Z"/></svg>